%
M48
M72
T01C0.01378
T02C0.02559
T03C0.03543
T04C0.18700
%
T01
X15138Y90178
X25138Y100178
X35138Y90178
X151138Y81178
X161138Y91178
X171138Y81178
X171138Y121178
X161138Y131178
X151138Y121178
T02
X126138Y146178
X82538Y153978
X72033Y166134
X60011Y175098
X41138Y141178
X16138Y66178
X51138Y41178
X89759Y51678
X111138Y36178
X131138Y31178
X136138Y36178
X126138Y16178
T03
X142910Y55666
X169682Y55666
X64182Y168166
X37410Y168166
T04
X16138Y16178
X16138Y171178
X171138Y171178
X171138Y16178
M30
