G75*
%MOIN*%
%OFA0B0*%
%FSLAX25Y25*%
%IPPOS*%
%LPD*%
%AMOC8*
5,1,8,0,0,1.08239X$1,22.5*
%
%ADD10R,0.02362X0.08661*%
%ADD11R,0.06299X0.07087*%
%ADD12R,0.07087X0.06299*%
%ADD13R,0.02362X0.02362*%
%ADD14R,0.04724X0.06299*%
%ADD15R,0.06299X0.07098*%
%ADD16R,0.08661X0.05906*%
%ADD17R,0.06299X0.10236*%
%ADD18R,0.13780X0.06299*%
D10*
X0068638Y0030941D03*
X0073638Y0030941D03*
X0078638Y0030941D03*
X0083638Y0030941D03*
X0083638Y0051414D03*
X0078638Y0051414D03*
X0073638Y0051414D03*
X0068638Y0051414D03*
D11*
X0110627Y0022178D03*
X0121650Y0022178D03*
X0121627Y0046178D03*
X0132650Y0046178D03*
D12*
X0044138Y0019666D03*
X0044138Y0030689D03*
D13*
X0076808Y0171178D03*
X0085469Y0171178D03*
D14*
X0060638Y0162654D03*
X0050796Y0173678D03*
X0040953Y0162654D03*
X0146453Y0050154D03*
X0156296Y0061178D03*
X0166138Y0050154D03*
D15*
X0144037Y0021978D03*
X0132840Y0021978D03*
X0111737Y0046178D03*
X0100540Y0046178D03*
X0130540Y0121178D03*
X0141737Y0121178D03*
X0121737Y0136178D03*
X0110540Y0136178D03*
X0091737Y0136178D03*
X0080540Y0136178D03*
D16*
X0049138Y0097178D03*
X0049138Y0084973D03*
X0137162Y0153973D03*
X0137162Y0166178D03*
D17*
G36*
X0076691Y0109967D02*
X0081144Y0114420D01*
X0088381Y0107183D01*
X0083928Y0102730D01*
X0076691Y0109967D01*
G37*
G36*
X0068896Y0102172D02*
X0073349Y0106625D01*
X0080586Y0099388D01*
X0076133Y0094935D01*
X0068896Y0102172D01*
G37*
X0087212Y0074385D03*
X0098236Y0074385D03*
G36*
X0116135Y0106247D02*
X0120588Y0101794D01*
X0113351Y0094557D01*
X0108898Y0099010D01*
X0116135Y0106247D01*
G37*
G36*
X0108340Y0114041D02*
X0112793Y0109588D01*
X0105556Y0102351D01*
X0101103Y0106804D01*
X0108340Y0114041D01*
G37*
D18*
X0117162Y0161178D03*
X0095115Y0161178D03*
X0046162Y0056178D03*
X0024115Y0056178D03*
M02*
