G75*
%MOIN*%
%OFA0B0*%
%FSLAX25Y25*%
%IPPOS*%
%LPD*%
%AMOC8*
5,1,8,0,0,1.08239X$1,22.5*
%
%ADD10C,0.00000*%
%ADD11R,0.02362X0.08661*%
%ADD12R,0.06299X0.07087*%
%ADD13R,0.07087X0.06299*%
%ADD14R,0.02362X0.02362*%
%ADD15R,0.04724X0.06299*%
%ADD16R,0.06299X0.07098*%
%ADD17R,0.08661X0.05906*%
%ADD18C,0.03378*%
%ADD19R,0.06299X0.10236*%
%ADD20R,0.13780X0.06299*%
%ADD21C,0.01600*%
%ADD22C,0.02400*%
%ADD23C,0.04159*%
D10*
X0001138Y0016178D02*
X0001138Y0161178D01*
X0006788Y0171178D02*
X0006791Y0171407D01*
X0006799Y0171637D01*
X0006813Y0171866D01*
X0006833Y0172094D01*
X0006858Y0172323D01*
X0006889Y0172550D01*
X0006926Y0172776D01*
X0006968Y0173002D01*
X0007015Y0173227D01*
X0007068Y0173450D01*
X0007127Y0173672D01*
X0007191Y0173892D01*
X0007260Y0174111D01*
X0007335Y0174328D01*
X0007415Y0174543D01*
X0007500Y0174756D01*
X0007590Y0174967D01*
X0007686Y0175176D01*
X0007786Y0175382D01*
X0007892Y0175586D01*
X0008003Y0175787D01*
X0008118Y0175985D01*
X0008239Y0176180D01*
X0008364Y0176373D01*
X0008494Y0176562D01*
X0008628Y0176748D01*
X0008767Y0176930D01*
X0008910Y0177110D01*
X0009058Y0177285D01*
X0009210Y0177457D01*
X0009366Y0177625D01*
X0009527Y0177789D01*
X0009691Y0177950D01*
X0009859Y0178106D01*
X0010031Y0178258D01*
X0010206Y0178406D01*
X0010386Y0178549D01*
X0010568Y0178688D01*
X0010754Y0178822D01*
X0010943Y0178952D01*
X0011136Y0179077D01*
X0011331Y0179198D01*
X0011529Y0179313D01*
X0011730Y0179424D01*
X0011934Y0179530D01*
X0012140Y0179630D01*
X0012349Y0179726D01*
X0012560Y0179816D01*
X0012773Y0179901D01*
X0012988Y0179981D01*
X0013205Y0180056D01*
X0013424Y0180125D01*
X0013644Y0180189D01*
X0013866Y0180248D01*
X0014089Y0180301D01*
X0014314Y0180348D01*
X0014540Y0180390D01*
X0014766Y0180427D01*
X0014993Y0180458D01*
X0015222Y0180483D01*
X0015450Y0180503D01*
X0015679Y0180517D01*
X0015909Y0180525D01*
X0016138Y0180528D01*
X0016367Y0180525D01*
X0016597Y0180517D01*
X0016826Y0180503D01*
X0017054Y0180483D01*
X0017283Y0180458D01*
X0017510Y0180427D01*
X0017736Y0180390D01*
X0017962Y0180348D01*
X0018187Y0180301D01*
X0018410Y0180248D01*
X0018632Y0180189D01*
X0018852Y0180125D01*
X0019071Y0180056D01*
X0019288Y0179981D01*
X0019503Y0179901D01*
X0019716Y0179816D01*
X0019927Y0179726D01*
X0020136Y0179630D01*
X0020342Y0179530D01*
X0020546Y0179424D01*
X0020747Y0179313D01*
X0020945Y0179198D01*
X0021140Y0179077D01*
X0021333Y0178952D01*
X0021522Y0178822D01*
X0021708Y0178688D01*
X0021890Y0178549D01*
X0022070Y0178406D01*
X0022245Y0178258D01*
X0022417Y0178106D01*
X0022585Y0177950D01*
X0022749Y0177789D01*
X0022910Y0177625D01*
X0023066Y0177457D01*
X0023218Y0177285D01*
X0023366Y0177110D01*
X0023509Y0176930D01*
X0023648Y0176748D01*
X0023782Y0176562D01*
X0023912Y0176373D01*
X0024037Y0176180D01*
X0024158Y0175985D01*
X0024273Y0175787D01*
X0024384Y0175586D01*
X0024490Y0175382D01*
X0024590Y0175176D01*
X0024686Y0174967D01*
X0024776Y0174756D01*
X0024861Y0174543D01*
X0024941Y0174328D01*
X0025016Y0174111D01*
X0025085Y0173892D01*
X0025149Y0173672D01*
X0025208Y0173450D01*
X0025261Y0173227D01*
X0025308Y0173002D01*
X0025350Y0172776D01*
X0025387Y0172550D01*
X0025418Y0172323D01*
X0025443Y0172094D01*
X0025463Y0171866D01*
X0025477Y0171637D01*
X0025485Y0171407D01*
X0025488Y0171178D01*
X0025485Y0170949D01*
X0025477Y0170719D01*
X0025463Y0170490D01*
X0025443Y0170262D01*
X0025418Y0170033D01*
X0025387Y0169806D01*
X0025350Y0169580D01*
X0025308Y0169354D01*
X0025261Y0169129D01*
X0025208Y0168906D01*
X0025149Y0168684D01*
X0025085Y0168464D01*
X0025016Y0168245D01*
X0024941Y0168028D01*
X0024861Y0167813D01*
X0024776Y0167600D01*
X0024686Y0167389D01*
X0024590Y0167180D01*
X0024490Y0166974D01*
X0024384Y0166770D01*
X0024273Y0166569D01*
X0024158Y0166371D01*
X0024037Y0166176D01*
X0023912Y0165983D01*
X0023782Y0165794D01*
X0023648Y0165608D01*
X0023509Y0165426D01*
X0023366Y0165246D01*
X0023218Y0165071D01*
X0023066Y0164899D01*
X0022910Y0164731D01*
X0022749Y0164567D01*
X0022585Y0164406D01*
X0022417Y0164250D01*
X0022245Y0164098D01*
X0022070Y0163950D01*
X0021890Y0163807D01*
X0021708Y0163668D01*
X0021522Y0163534D01*
X0021333Y0163404D01*
X0021140Y0163279D01*
X0020945Y0163158D01*
X0020747Y0163043D01*
X0020546Y0162932D01*
X0020342Y0162826D01*
X0020136Y0162726D01*
X0019927Y0162630D01*
X0019716Y0162540D01*
X0019503Y0162455D01*
X0019288Y0162375D01*
X0019071Y0162300D01*
X0018852Y0162231D01*
X0018632Y0162167D01*
X0018410Y0162108D01*
X0018187Y0162055D01*
X0017962Y0162008D01*
X0017736Y0161966D01*
X0017510Y0161929D01*
X0017283Y0161898D01*
X0017054Y0161873D01*
X0016826Y0161853D01*
X0016597Y0161839D01*
X0016367Y0161831D01*
X0016138Y0161828D01*
X0015909Y0161831D01*
X0015679Y0161839D01*
X0015450Y0161853D01*
X0015222Y0161873D01*
X0014993Y0161898D01*
X0014766Y0161929D01*
X0014540Y0161966D01*
X0014314Y0162008D01*
X0014089Y0162055D01*
X0013866Y0162108D01*
X0013644Y0162167D01*
X0013424Y0162231D01*
X0013205Y0162300D01*
X0012988Y0162375D01*
X0012773Y0162455D01*
X0012560Y0162540D01*
X0012349Y0162630D01*
X0012140Y0162726D01*
X0011934Y0162826D01*
X0011730Y0162932D01*
X0011529Y0163043D01*
X0011331Y0163158D01*
X0011136Y0163279D01*
X0010943Y0163404D01*
X0010754Y0163534D01*
X0010568Y0163668D01*
X0010386Y0163807D01*
X0010206Y0163950D01*
X0010031Y0164098D01*
X0009859Y0164250D01*
X0009691Y0164406D01*
X0009527Y0164567D01*
X0009366Y0164731D01*
X0009210Y0164899D01*
X0009058Y0165071D01*
X0008910Y0165246D01*
X0008767Y0165426D01*
X0008628Y0165608D01*
X0008494Y0165794D01*
X0008364Y0165983D01*
X0008239Y0166176D01*
X0008118Y0166371D01*
X0008003Y0166569D01*
X0007892Y0166770D01*
X0007786Y0166974D01*
X0007686Y0167180D01*
X0007590Y0167389D01*
X0007500Y0167600D01*
X0007415Y0167813D01*
X0007335Y0168028D01*
X0007260Y0168245D01*
X0007191Y0168464D01*
X0007127Y0168684D01*
X0007068Y0168906D01*
X0007015Y0169129D01*
X0006968Y0169354D01*
X0006926Y0169580D01*
X0006889Y0169806D01*
X0006858Y0170033D01*
X0006833Y0170262D01*
X0006813Y0170490D01*
X0006799Y0170719D01*
X0006791Y0170949D01*
X0006788Y0171178D01*
X0021138Y0186178D02*
X0166138Y0186178D01*
X0161788Y0171178D02*
X0161791Y0171407D01*
X0161799Y0171637D01*
X0161813Y0171866D01*
X0161833Y0172094D01*
X0161858Y0172323D01*
X0161889Y0172550D01*
X0161926Y0172776D01*
X0161968Y0173002D01*
X0162015Y0173227D01*
X0162068Y0173450D01*
X0162127Y0173672D01*
X0162191Y0173892D01*
X0162260Y0174111D01*
X0162335Y0174328D01*
X0162415Y0174543D01*
X0162500Y0174756D01*
X0162590Y0174967D01*
X0162686Y0175176D01*
X0162786Y0175382D01*
X0162892Y0175586D01*
X0163003Y0175787D01*
X0163118Y0175985D01*
X0163239Y0176180D01*
X0163364Y0176373D01*
X0163494Y0176562D01*
X0163628Y0176748D01*
X0163767Y0176930D01*
X0163910Y0177110D01*
X0164058Y0177285D01*
X0164210Y0177457D01*
X0164366Y0177625D01*
X0164527Y0177789D01*
X0164691Y0177950D01*
X0164859Y0178106D01*
X0165031Y0178258D01*
X0165206Y0178406D01*
X0165386Y0178549D01*
X0165568Y0178688D01*
X0165754Y0178822D01*
X0165943Y0178952D01*
X0166136Y0179077D01*
X0166331Y0179198D01*
X0166529Y0179313D01*
X0166730Y0179424D01*
X0166934Y0179530D01*
X0167140Y0179630D01*
X0167349Y0179726D01*
X0167560Y0179816D01*
X0167773Y0179901D01*
X0167988Y0179981D01*
X0168205Y0180056D01*
X0168424Y0180125D01*
X0168644Y0180189D01*
X0168866Y0180248D01*
X0169089Y0180301D01*
X0169314Y0180348D01*
X0169540Y0180390D01*
X0169766Y0180427D01*
X0169993Y0180458D01*
X0170222Y0180483D01*
X0170450Y0180503D01*
X0170679Y0180517D01*
X0170909Y0180525D01*
X0171138Y0180528D01*
X0171367Y0180525D01*
X0171597Y0180517D01*
X0171826Y0180503D01*
X0172054Y0180483D01*
X0172283Y0180458D01*
X0172510Y0180427D01*
X0172736Y0180390D01*
X0172962Y0180348D01*
X0173187Y0180301D01*
X0173410Y0180248D01*
X0173632Y0180189D01*
X0173852Y0180125D01*
X0174071Y0180056D01*
X0174288Y0179981D01*
X0174503Y0179901D01*
X0174716Y0179816D01*
X0174927Y0179726D01*
X0175136Y0179630D01*
X0175342Y0179530D01*
X0175546Y0179424D01*
X0175747Y0179313D01*
X0175945Y0179198D01*
X0176140Y0179077D01*
X0176333Y0178952D01*
X0176522Y0178822D01*
X0176708Y0178688D01*
X0176890Y0178549D01*
X0177070Y0178406D01*
X0177245Y0178258D01*
X0177417Y0178106D01*
X0177585Y0177950D01*
X0177749Y0177789D01*
X0177910Y0177625D01*
X0178066Y0177457D01*
X0178218Y0177285D01*
X0178366Y0177110D01*
X0178509Y0176930D01*
X0178648Y0176748D01*
X0178782Y0176562D01*
X0178912Y0176373D01*
X0179037Y0176180D01*
X0179158Y0175985D01*
X0179273Y0175787D01*
X0179384Y0175586D01*
X0179490Y0175382D01*
X0179590Y0175176D01*
X0179686Y0174967D01*
X0179776Y0174756D01*
X0179861Y0174543D01*
X0179941Y0174328D01*
X0180016Y0174111D01*
X0180085Y0173892D01*
X0180149Y0173672D01*
X0180208Y0173450D01*
X0180261Y0173227D01*
X0180308Y0173002D01*
X0180350Y0172776D01*
X0180387Y0172550D01*
X0180418Y0172323D01*
X0180443Y0172094D01*
X0180463Y0171866D01*
X0180477Y0171637D01*
X0180485Y0171407D01*
X0180488Y0171178D01*
X0180485Y0170949D01*
X0180477Y0170719D01*
X0180463Y0170490D01*
X0180443Y0170262D01*
X0180418Y0170033D01*
X0180387Y0169806D01*
X0180350Y0169580D01*
X0180308Y0169354D01*
X0180261Y0169129D01*
X0180208Y0168906D01*
X0180149Y0168684D01*
X0180085Y0168464D01*
X0180016Y0168245D01*
X0179941Y0168028D01*
X0179861Y0167813D01*
X0179776Y0167600D01*
X0179686Y0167389D01*
X0179590Y0167180D01*
X0179490Y0166974D01*
X0179384Y0166770D01*
X0179273Y0166569D01*
X0179158Y0166371D01*
X0179037Y0166176D01*
X0178912Y0165983D01*
X0178782Y0165794D01*
X0178648Y0165608D01*
X0178509Y0165426D01*
X0178366Y0165246D01*
X0178218Y0165071D01*
X0178066Y0164899D01*
X0177910Y0164731D01*
X0177749Y0164567D01*
X0177585Y0164406D01*
X0177417Y0164250D01*
X0177245Y0164098D01*
X0177070Y0163950D01*
X0176890Y0163807D01*
X0176708Y0163668D01*
X0176522Y0163534D01*
X0176333Y0163404D01*
X0176140Y0163279D01*
X0175945Y0163158D01*
X0175747Y0163043D01*
X0175546Y0162932D01*
X0175342Y0162826D01*
X0175136Y0162726D01*
X0174927Y0162630D01*
X0174716Y0162540D01*
X0174503Y0162455D01*
X0174288Y0162375D01*
X0174071Y0162300D01*
X0173852Y0162231D01*
X0173632Y0162167D01*
X0173410Y0162108D01*
X0173187Y0162055D01*
X0172962Y0162008D01*
X0172736Y0161966D01*
X0172510Y0161929D01*
X0172283Y0161898D01*
X0172054Y0161873D01*
X0171826Y0161853D01*
X0171597Y0161839D01*
X0171367Y0161831D01*
X0171138Y0161828D01*
X0170909Y0161831D01*
X0170679Y0161839D01*
X0170450Y0161853D01*
X0170222Y0161873D01*
X0169993Y0161898D01*
X0169766Y0161929D01*
X0169540Y0161966D01*
X0169314Y0162008D01*
X0169089Y0162055D01*
X0168866Y0162108D01*
X0168644Y0162167D01*
X0168424Y0162231D01*
X0168205Y0162300D01*
X0167988Y0162375D01*
X0167773Y0162455D01*
X0167560Y0162540D01*
X0167349Y0162630D01*
X0167140Y0162726D01*
X0166934Y0162826D01*
X0166730Y0162932D01*
X0166529Y0163043D01*
X0166331Y0163158D01*
X0166136Y0163279D01*
X0165943Y0163404D01*
X0165754Y0163534D01*
X0165568Y0163668D01*
X0165386Y0163807D01*
X0165206Y0163950D01*
X0165031Y0164098D01*
X0164859Y0164250D01*
X0164691Y0164406D01*
X0164527Y0164567D01*
X0164366Y0164731D01*
X0164210Y0164899D01*
X0164058Y0165071D01*
X0163910Y0165246D01*
X0163767Y0165426D01*
X0163628Y0165608D01*
X0163494Y0165794D01*
X0163364Y0165983D01*
X0163239Y0166176D01*
X0163118Y0166371D01*
X0163003Y0166569D01*
X0162892Y0166770D01*
X0162786Y0166974D01*
X0162686Y0167180D01*
X0162590Y0167389D01*
X0162500Y0167600D01*
X0162415Y0167813D01*
X0162335Y0168028D01*
X0162260Y0168245D01*
X0162191Y0168464D01*
X0162127Y0168684D01*
X0162068Y0168906D01*
X0162015Y0169129D01*
X0161968Y0169354D01*
X0161926Y0169580D01*
X0161889Y0169806D01*
X0161858Y0170033D01*
X0161833Y0170262D01*
X0161813Y0170490D01*
X0161799Y0170719D01*
X0161791Y0170949D01*
X0161788Y0171178D01*
X0166138Y0186178D02*
X0166621Y0186172D01*
X0167104Y0186155D01*
X0167587Y0186125D01*
X0168068Y0186085D01*
X0168549Y0186032D01*
X0169028Y0185968D01*
X0169505Y0185893D01*
X0169981Y0185805D01*
X0170454Y0185707D01*
X0170924Y0185597D01*
X0171392Y0185476D01*
X0171857Y0185343D01*
X0172318Y0185199D01*
X0172776Y0185044D01*
X0173230Y0184878D01*
X0173680Y0184701D01*
X0174125Y0184514D01*
X0174566Y0184315D01*
X0175002Y0184107D01*
X0175432Y0183887D01*
X0175858Y0183657D01*
X0176277Y0183417D01*
X0176691Y0183167D01*
X0177098Y0182907D01*
X0177499Y0182638D01*
X0177894Y0182358D01*
X0178281Y0182070D01*
X0178662Y0181771D01*
X0179035Y0181464D01*
X0179400Y0181148D01*
X0179758Y0180823D01*
X0180108Y0180490D01*
X0180450Y0180148D01*
X0180783Y0179798D01*
X0181108Y0179440D01*
X0181424Y0179075D01*
X0181731Y0178702D01*
X0182030Y0178321D01*
X0182318Y0177934D01*
X0182598Y0177539D01*
X0182867Y0177138D01*
X0183127Y0176731D01*
X0183377Y0176317D01*
X0183617Y0175898D01*
X0183847Y0175472D01*
X0184067Y0175042D01*
X0184275Y0174606D01*
X0184474Y0174165D01*
X0184661Y0173720D01*
X0184838Y0173270D01*
X0185004Y0172816D01*
X0185159Y0172358D01*
X0185303Y0171897D01*
X0185436Y0171432D01*
X0185557Y0170964D01*
X0185667Y0170494D01*
X0185765Y0170021D01*
X0185853Y0169545D01*
X0185928Y0169068D01*
X0185992Y0168589D01*
X0186045Y0168108D01*
X0186085Y0167627D01*
X0186115Y0167144D01*
X0186132Y0166661D01*
X0186138Y0166178D01*
X0186138Y0016178D01*
X0186195Y0015875D01*
X0186245Y0015571D01*
X0186287Y0015266D01*
X0186321Y0014960D01*
X0186349Y0014653D01*
X0186369Y0014346D01*
X0186381Y0014038D01*
X0186386Y0013730D01*
X0186383Y0013422D01*
X0186374Y0013114D01*
X0186356Y0012806D01*
X0186331Y0012499D01*
X0186299Y0012193D01*
X0186260Y0011887D01*
X0186213Y0011583D01*
X0186158Y0011280D01*
X0186097Y0010978D01*
X0186028Y0010678D01*
X0185952Y0010379D01*
X0185868Y0010082D01*
X0185778Y0009788D01*
X0185680Y0009496D01*
X0185576Y0009206D01*
X0185464Y0008919D01*
X0185346Y0008634D01*
X0185221Y0008353D01*
X0185089Y0008075D01*
X0184950Y0007800D01*
X0184804Y0007528D01*
X0184653Y0007260D01*
X0184494Y0006996D01*
X0184330Y0006735D01*
X0184159Y0006479D01*
X0183982Y0006227D01*
X0183799Y0005979D01*
X0183610Y0005736D01*
X0183415Y0005497D01*
X0183214Y0005263D01*
X0183008Y0005034D01*
X0182797Y0004811D01*
X0182580Y0004592D01*
X0182357Y0004378D01*
X0182130Y0004170D01*
X0181898Y0003968D01*
X0181661Y0003771D01*
X0181419Y0003580D01*
X0181173Y0003395D01*
X0180922Y0003216D01*
X0180667Y0003043D01*
X0180408Y0002876D01*
X0180145Y0002716D01*
X0179879Y0002562D01*
X0179608Y0002414D01*
X0179334Y0002273D01*
X0179057Y0002139D01*
X0178777Y0002012D01*
X0178493Y0001891D01*
X0178207Y0001777D01*
X0177918Y0001670D01*
X0177627Y0001570D01*
X0177333Y0001477D01*
X0177037Y0001391D01*
X0176739Y0001313D01*
X0176439Y0001242D01*
X0176138Y0001178D01*
X0166138Y0001178D01*
X0026138Y0001178D01*
X0021138Y0001178D01*
X0026138Y0001178D01*
X0006788Y0016178D02*
X0006791Y0016407D01*
X0006799Y0016637D01*
X0006813Y0016866D01*
X0006833Y0017094D01*
X0006858Y0017323D01*
X0006889Y0017550D01*
X0006926Y0017776D01*
X0006968Y0018002D01*
X0007015Y0018227D01*
X0007068Y0018450D01*
X0007127Y0018672D01*
X0007191Y0018892D01*
X0007260Y0019111D01*
X0007335Y0019328D01*
X0007415Y0019543D01*
X0007500Y0019756D01*
X0007590Y0019967D01*
X0007686Y0020176D01*
X0007786Y0020382D01*
X0007892Y0020586D01*
X0008003Y0020787D01*
X0008118Y0020985D01*
X0008239Y0021180D01*
X0008364Y0021373D01*
X0008494Y0021562D01*
X0008628Y0021748D01*
X0008767Y0021930D01*
X0008910Y0022110D01*
X0009058Y0022285D01*
X0009210Y0022457D01*
X0009366Y0022625D01*
X0009527Y0022789D01*
X0009691Y0022950D01*
X0009859Y0023106D01*
X0010031Y0023258D01*
X0010206Y0023406D01*
X0010386Y0023549D01*
X0010568Y0023688D01*
X0010754Y0023822D01*
X0010943Y0023952D01*
X0011136Y0024077D01*
X0011331Y0024198D01*
X0011529Y0024313D01*
X0011730Y0024424D01*
X0011934Y0024530D01*
X0012140Y0024630D01*
X0012349Y0024726D01*
X0012560Y0024816D01*
X0012773Y0024901D01*
X0012988Y0024981D01*
X0013205Y0025056D01*
X0013424Y0025125D01*
X0013644Y0025189D01*
X0013866Y0025248D01*
X0014089Y0025301D01*
X0014314Y0025348D01*
X0014540Y0025390D01*
X0014766Y0025427D01*
X0014993Y0025458D01*
X0015222Y0025483D01*
X0015450Y0025503D01*
X0015679Y0025517D01*
X0015909Y0025525D01*
X0016138Y0025528D01*
X0016367Y0025525D01*
X0016597Y0025517D01*
X0016826Y0025503D01*
X0017054Y0025483D01*
X0017283Y0025458D01*
X0017510Y0025427D01*
X0017736Y0025390D01*
X0017962Y0025348D01*
X0018187Y0025301D01*
X0018410Y0025248D01*
X0018632Y0025189D01*
X0018852Y0025125D01*
X0019071Y0025056D01*
X0019288Y0024981D01*
X0019503Y0024901D01*
X0019716Y0024816D01*
X0019927Y0024726D01*
X0020136Y0024630D01*
X0020342Y0024530D01*
X0020546Y0024424D01*
X0020747Y0024313D01*
X0020945Y0024198D01*
X0021140Y0024077D01*
X0021333Y0023952D01*
X0021522Y0023822D01*
X0021708Y0023688D01*
X0021890Y0023549D01*
X0022070Y0023406D01*
X0022245Y0023258D01*
X0022417Y0023106D01*
X0022585Y0022950D01*
X0022749Y0022789D01*
X0022910Y0022625D01*
X0023066Y0022457D01*
X0023218Y0022285D01*
X0023366Y0022110D01*
X0023509Y0021930D01*
X0023648Y0021748D01*
X0023782Y0021562D01*
X0023912Y0021373D01*
X0024037Y0021180D01*
X0024158Y0020985D01*
X0024273Y0020787D01*
X0024384Y0020586D01*
X0024490Y0020382D01*
X0024590Y0020176D01*
X0024686Y0019967D01*
X0024776Y0019756D01*
X0024861Y0019543D01*
X0024941Y0019328D01*
X0025016Y0019111D01*
X0025085Y0018892D01*
X0025149Y0018672D01*
X0025208Y0018450D01*
X0025261Y0018227D01*
X0025308Y0018002D01*
X0025350Y0017776D01*
X0025387Y0017550D01*
X0025418Y0017323D01*
X0025443Y0017094D01*
X0025463Y0016866D01*
X0025477Y0016637D01*
X0025485Y0016407D01*
X0025488Y0016178D01*
X0025485Y0015949D01*
X0025477Y0015719D01*
X0025463Y0015490D01*
X0025443Y0015262D01*
X0025418Y0015033D01*
X0025387Y0014806D01*
X0025350Y0014580D01*
X0025308Y0014354D01*
X0025261Y0014129D01*
X0025208Y0013906D01*
X0025149Y0013684D01*
X0025085Y0013464D01*
X0025016Y0013245D01*
X0024941Y0013028D01*
X0024861Y0012813D01*
X0024776Y0012600D01*
X0024686Y0012389D01*
X0024590Y0012180D01*
X0024490Y0011974D01*
X0024384Y0011770D01*
X0024273Y0011569D01*
X0024158Y0011371D01*
X0024037Y0011176D01*
X0023912Y0010983D01*
X0023782Y0010794D01*
X0023648Y0010608D01*
X0023509Y0010426D01*
X0023366Y0010246D01*
X0023218Y0010071D01*
X0023066Y0009899D01*
X0022910Y0009731D01*
X0022749Y0009567D01*
X0022585Y0009406D01*
X0022417Y0009250D01*
X0022245Y0009098D01*
X0022070Y0008950D01*
X0021890Y0008807D01*
X0021708Y0008668D01*
X0021522Y0008534D01*
X0021333Y0008404D01*
X0021140Y0008279D01*
X0020945Y0008158D01*
X0020747Y0008043D01*
X0020546Y0007932D01*
X0020342Y0007826D01*
X0020136Y0007726D01*
X0019927Y0007630D01*
X0019716Y0007540D01*
X0019503Y0007455D01*
X0019288Y0007375D01*
X0019071Y0007300D01*
X0018852Y0007231D01*
X0018632Y0007167D01*
X0018410Y0007108D01*
X0018187Y0007055D01*
X0017962Y0007008D01*
X0017736Y0006966D01*
X0017510Y0006929D01*
X0017283Y0006898D01*
X0017054Y0006873D01*
X0016826Y0006853D01*
X0016597Y0006839D01*
X0016367Y0006831D01*
X0016138Y0006828D01*
X0015909Y0006831D01*
X0015679Y0006839D01*
X0015450Y0006853D01*
X0015222Y0006873D01*
X0014993Y0006898D01*
X0014766Y0006929D01*
X0014540Y0006966D01*
X0014314Y0007008D01*
X0014089Y0007055D01*
X0013866Y0007108D01*
X0013644Y0007167D01*
X0013424Y0007231D01*
X0013205Y0007300D01*
X0012988Y0007375D01*
X0012773Y0007455D01*
X0012560Y0007540D01*
X0012349Y0007630D01*
X0012140Y0007726D01*
X0011934Y0007826D01*
X0011730Y0007932D01*
X0011529Y0008043D01*
X0011331Y0008158D01*
X0011136Y0008279D01*
X0010943Y0008404D01*
X0010754Y0008534D01*
X0010568Y0008668D01*
X0010386Y0008807D01*
X0010206Y0008950D01*
X0010031Y0009098D01*
X0009859Y0009250D01*
X0009691Y0009406D01*
X0009527Y0009567D01*
X0009366Y0009731D01*
X0009210Y0009899D01*
X0009058Y0010071D01*
X0008910Y0010246D01*
X0008767Y0010426D01*
X0008628Y0010608D01*
X0008494Y0010794D01*
X0008364Y0010983D01*
X0008239Y0011176D01*
X0008118Y0011371D01*
X0008003Y0011569D01*
X0007892Y0011770D01*
X0007786Y0011974D01*
X0007686Y0012180D01*
X0007590Y0012389D01*
X0007500Y0012600D01*
X0007415Y0012813D01*
X0007335Y0013028D01*
X0007260Y0013245D01*
X0007191Y0013464D01*
X0007127Y0013684D01*
X0007068Y0013906D01*
X0007015Y0014129D01*
X0006968Y0014354D01*
X0006926Y0014580D01*
X0006889Y0014806D01*
X0006858Y0015033D01*
X0006833Y0015262D01*
X0006813Y0015490D01*
X0006799Y0015719D01*
X0006791Y0015949D01*
X0006788Y0016178D01*
X0001138Y0016178D02*
X0001203Y0015756D01*
X0001279Y0015335D01*
X0001365Y0014917D01*
X0001461Y0014501D01*
X0001567Y0014087D01*
X0001683Y0013676D01*
X0001808Y0013267D01*
X0001944Y0012862D01*
X0002089Y0012461D01*
X0002245Y0012062D01*
X0002409Y0011668D01*
X0002583Y0011278D01*
X0002767Y0010892D01*
X0002960Y0010511D01*
X0003161Y0010135D01*
X0003372Y0009763D01*
X0003592Y0009397D01*
X0003821Y0009036D01*
X0004058Y0008681D01*
X0004304Y0008332D01*
X0004558Y0007988D01*
X0004821Y0007651D01*
X0005091Y0007320D01*
X0005370Y0006996D01*
X0005656Y0006679D01*
X0005949Y0006369D01*
X0006251Y0006066D01*
X0006559Y0005770D01*
X0006874Y0005482D01*
X0007197Y0005202D01*
X0007526Y0004929D01*
X0007861Y0004665D01*
X0008203Y0004408D01*
X0008551Y0004160D01*
X0008904Y0003921D01*
X0009264Y0003690D01*
X0009629Y0003468D01*
X0009999Y0003255D01*
X0010374Y0003050D01*
X0010754Y0002855D01*
X0011139Y0002669D01*
X0011528Y0002493D01*
X0011921Y0002326D01*
X0012318Y0002168D01*
X0012719Y0002020D01*
X0013123Y0001882D01*
X0013531Y0001754D01*
X0013941Y0001635D01*
X0014354Y0001527D01*
X0014770Y0001428D01*
X0015188Y0001340D01*
X0015608Y0001262D01*
X0016030Y0001194D01*
X0016453Y0001136D01*
X0016877Y0001088D01*
X0017303Y0001050D01*
X0017729Y0001023D01*
X0018156Y0001007D01*
X0018583Y0001000D01*
X0019010Y0001004D01*
X0019437Y0001018D01*
X0019864Y0001043D01*
X0020290Y0001077D01*
X0020714Y0001122D01*
X0021138Y0001178D01*
X0141138Y0055666D02*
X0141140Y0055750D01*
X0141146Y0055833D01*
X0141156Y0055916D01*
X0141170Y0055999D01*
X0141187Y0056081D01*
X0141209Y0056162D01*
X0141234Y0056241D01*
X0141263Y0056320D01*
X0141296Y0056397D01*
X0141332Y0056472D01*
X0141372Y0056546D01*
X0141415Y0056618D01*
X0141462Y0056687D01*
X0141512Y0056754D01*
X0141565Y0056819D01*
X0141621Y0056881D01*
X0141679Y0056941D01*
X0141741Y0056998D01*
X0141805Y0057051D01*
X0141872Y0057102D01*
X0141941Y0057149D01*
X0142012Y0057194D01*
X0142085Y0057234D01*
X0142160Y0057271D01*
X0142237Y0057305D01*
X0142315Y0057335D01*
X0142394Y0057361D01*
X0142475Y0057384D01*
X0142557Y0057402D01*
X0142639Y0057417D01*
X0142722Y0057428D01*
X0142805Y0057435D01*
X0142889Y0057438D01*
X0142973Y0057437D01*
X0143056Y0057432D01*
X0143140Y0057423D01*
X0143222Y0057410D01*
X0143304Y0057394D01*
X0143385Y0057373D01*
X0143466Y0057349D01*
X0143544Y0057321D01*
X0143622Y0057289D01*
X0143698Y0057253D01*
X0143772Y0057214D01*
X0143844Y0057172D01*
X0143914Y0057126D01*
X0143982Y0057077D01*
X0144047Y0057025D01*
X0144110Y0056970D01*
X0144170Y0056912D01*
X0144228Y0056851D01*
X0144282Y0056787D01*
X0144334Y0056721D01*
X0144382Y0056653D01*
X0144427Y0056582D01*
X0144468Y0056509D01*
X0144507Y0056435D01*
X0144541Y0056359D01*
X0144572Y0056281D01*
X0144599Y0056202D01*
X0144623Y0056121D01*
X0144642Y0056040D01*
X0144658Y0055958D01*
X0144670Y0055875D01*
X0144678Y0055791D01*
X0144682Y0055708D01*
X0144682Y0055624D01*
X0144678Y0055541D01*
X0144670Y0055457D01*
X0144658Y0055374D01*
X0144642Y0055292D01*
X0144623Y0055211D01*
X0144599Y0055130D01*
X0144572Y0055051D01*
X0144541Y0054973D01*
X0144507Y0054897D01*
X0144468Y0054823D01*
X0144427Y0054750D01*
X0144382Y0054679D01*
X0144334Y0054611D01*
X0144282Y0054545D01*
X0144228Y0054481D01*
X0144170Y0054420D01*
X0144110Y0054362D01*
X0144047Y0054307D01*
X0143982Y0054255D01*
X0143914Y0054206D01*
X0143844Y0054160D01*
X0143772Y0054118D01*
X0143698Y0054079D01*
X0143622Y0054043D01*
X0143544Y0054011D01*
X0143466Y0053983D01*
X0143385Y0053959D01*
X0143304Y0053938D01*
X0143222Y0053922D01*
X0143140Y0053909D01*
X0143056Y0053900D01*
X0142973Y0053895D01*
X0142889Y0053894D01*
X0142805Y0053897D01*
X0142722Y0053904D01*
X0142639Y0053915D01*
X0142557Y0053930D01*
X0142475Y0053948D01*
X0142394Y0053971D01*
X0142315Y0053997D01*
X0142237Y0054027D01*
X0142160Y0054061D01*
X0142085Y0054098D01*
X0142012Y0054138D01*
X0141941Y0054183D01*
X0141872Y0054230D01*
X0141805Y0054281D01*
X0141741Y0054334D01*
X0141679Y0054391D01*
X0141621Y0054451D01*
X0141565Y0054513D01*
X0141512Y0054578D01*
X0141462Y0054645D01*
X0141415Y0054714D01*
X0141372Y0054786D01*
X0141332Y0054860D01*
X0141296Y0054935D01*
X0141263Y0055012D01*
X0141234Y0055091D01*
X0141209Y0055170D01*
X0141187Y0055251D01*
X0141170Y0055333D01*
X0141156Y0055416D01*
X0141146Y0055499D01*
X0141140Y0055582D01*
X0141138Y0055666D01*
X0167910Y0055666D02*
X0167912Y0055750D01*
X0167918Y0055833D01*
X0167928Y0055916D01*
X0167942Y0055999D01*
X0167959Y0056081D01*
X0167981Y0056162D01*
X0168006Y0056241D01*
X0168035Y0056320D01*
X0168068Y0056397D01*
X0168104Y0056472D01*
X0168144Y0056546D01*
X0168187Y0056618D01*
X0168234Y0056687D01*
X0168284Y0056754D01*
X0168337Y0056819D01*
X0168393Y0056881D01*
X0168451Y0056941D01*
X0168513Y0056998D01*
X0168577Y0057051D01*
X0168644Y0057102D01*
X0168713Y0057149D01*
X0168784Y0057194D01*
X0168857Y0057234D01*
X0168932Y0057271D01*
X0169009Y0057305D01*
X0169087Y0057335D01*
X0169166Y0057361D01*
X0169247Y0057384D01*
X0169329Y0057402D01*
X0169411Y0057417D01*
X0169494Y0057428D01*
X0169577Y0057435D01*
X0169661Y0057438D01*
X0169745Y0057437D01*
X0169828Y0057432D01*
X0169912Y0057423D01*
X0169994Y0057410D01*
X0170076Y0057394D01*
X0170157Y0057373D01*
X0170238Y0057349D01*
X0170316Y0057321D01*
X0170394Y0057289D01*
X0170470Y0057253D01*
X0170544Y0057214D01*
X0170616Y0057172D01*
X0170686Y0057126D01*
X0170754Y0057077D01*
X0170819Y0057025D01*
X0170882Y0056970D01*
X0170942Y0056912D01*
X0171000Y0056851D01*
X0171054Y0056787D01*
X0171106Y0056721D01*
X0171154Y0056653D01*
X0171199Y0056582D01*
X0171240Y0056509D01*
X0171279Y0056435D01*
X0171313Y0056359D01*
X0171344Y0056281D01*
X0171371Y0056202D01*
X0171395Y0056121D01*
X0171414Y0056040D01*
X0171430Y0055958D01*
X0171442Y0055875D01*
X0171450Y0055791D01*
X0171454Y0055708D01*
X0171454Y0055624D01*
X0171450Y0055541D01*
X0171442Y0055457D01*
X0171430Y0055374D01*
X0171414Y0055292D01*
X0171395Y0055211D01*
X0171371Y0055130D01*
X0171344Y0055051D01*
X0171313Y0054973D01*
X0171279Y0054897D01*
X0171240Y0054823D01*
X0171199Y0054750D01*
X0171154Y0054679D01*
X0171106Y0054611D01*
X0171054Y0054545D01*
X0171000Y0054481D01*
X0170942Y0054420D01*
X0170882Y0054362D01*
X0170819Y0054307D01*
X0170754Y0054255D01*
X0170686Y0054206D01*
X0170616Y0054160D01*
X0170544Y0054118D01*
X0170470Y0054079D01*
X0170394Y0054043D01*
X0170316Y0054011D01*
X0170238Y0053983D01*
X0170157Y0053959D01*
X0170076Y0053938D01*
X0169994Y0053922D01*
X0169912Y0053909D01*
X0169828Y0053900D01*
X0169745Y0053895D01*
X0169661Y0053894D01*
X0169577Y0053897D01*
X0169494Y0053904D01*
X0169411Y0053915D01*
X0169329Y0053930D01*
X0169247Y0053948D01*
X0169166Y0053971D01*
X0169087Y0053997D01*
X0169009Y0054027D01*
X0168932Y0054061D01*
X0168857Y0054098D01*
X0168784Y0054138D01*
X0168713Y0054183D01*
X0168644Y0054230D01*
X0168577Y0054281D01*
X0168513Y0054334D01*
X0168451Y0054391D01*
X0168393Y0054451D01*
X0168337Y0054513D01*
X0168284Y0054578D01*
X0168234Y0054645D01*
X0168187Y0054714D01*
X0168144Y0054786D01*
X0168104Y0054860D01*
X0168068Y0054935D01*
X0168035Y0055012D01*
X0168006Y0055091D01*
X0167981Y0055170D01*
X0167959Y0055251D01*
X0167942Y0055333D01*
X0167928Y0055416D01*
X0167918Y0055499D01*
X0167912Y0055582D01*
X0167910Y0055666D01*
X0161788Y0016178D02*
X0161791Y0016407D01*
X0161799Y0016637D01*
X0161813Y0016866D01*
X0161833Y0017094D01*
X0161858Y0017323D01*
X0161889Y0017550D01*
X0161926Y0017776D01*
X0161968Y0018002D01*
X0162015Y0018227D01*
X0162068Y0018450D01*
X0162127Y0018672D01*
X0162191Y0018892D01*
X0162260Y0019111D01*
X0162335Y0019328D01*
X0162415Y0019543D01*
X0162500Y0019756D01*
X0162590Y0019967D01*
X0162686Y0020176D01*
X0162786Y0020382D01*
X0162892Y0020586D01*
X0163003Y0020787D01*
X0163118Y0020985D01*
X0163239Y0021180D01*
X0163364Y0021373D01*
X0163494Y0021562D01*
X0163628Y0021748D01*
X0163767Y0021930D01*
X0163910Y0022110D01*
X0164058Y0022285D01*
X0164210Y0022457D01*
X0164366Y0022625D01*
X0164527Y0022789D01*
X0164691Y0022950D01*
X0164859Y0023106D01*
X0165031Y0023258D01*
X0165206Y0023406D01*
X0165386Y0023549D01*
X0165568Y0023688D01*
X0165754Y0023822D01*
X0165943Y0023952D01*
X0166136Y0024077D01*
X0166331Y0024198D01*
X0166529Y0024313D01*
X0166730Y0024424D01*
X0166934Y0024530D01*
X0167140Y0024630D01*
X0167349Y0024726D01*
X0167560Y0024816D01*
X0167773Y0024901D01*
X0167988Y0024981D01*
X0168205Y0025056D01*
X0168424Y0025125D01*
X0168644Y0025189D01*
X0168866Y0025248D01*
X0169089Y0025301D01*
X0169314Y0025348D01*
X0169540Y0025390D01*
X0169766Y0025427D01*
X0169993Y0025458D01*
X0170222Y0025483D01*
X0170450Y0025503D01*
X0170679Y0025517D01*
X0170909Y0025525D01*
X0171138Y0025528D01*
X0171367Y0025525D01*
X0171597Y0025517D01*
X0171826Y0025503D01*
X0172054Y0025483D01*
X0172283Y0025458D01*
X0172510Y0025427D01*
X0172736Y0025390D01*
X0172962Y0025348D01*
X0173187Y0025301D01*
X0173410Y0025248D01*
X0173632Y0025189D01*
X0173852Y0025125D01*
X0174071Y0025056D01*
X0174288Y0024981D01*
X0174503Y0024901D01*
X0174716Y0024816D01*
X0174927Y0024726D01*
X0175136Y0024630D01*
X0175342Y0024530D01*
X0175546Y0024424D01*
X0175747Y0024313D01*
X0175945Y0024198D01*
X0176140Y0024077D01*
X0176333Y0023952D01*
X0176522Y0023822D01*
X0176708Y0023688D01*
X0176890Y0023549D01*
X0177070Y0023406D01*
X0177245Y0023258D01*
X0177417Y0023106D01*
X0177585Y0022950D01*
X0177749Y0022789D01*
X0177910Y0022625D01*
X0178066Y0022457D01*
X0178218Y0022285D01*
X0178366Y0022110D01*
X0178509Y0021930D01*
X0178648Y0021748D01*
X0178782Y0021562D01*
X0178912Y0021373D01*
X0179037Y0021180D01*
X0179158Y0020985D01*
X0179273Y0020787D01*
X0179384Y0020586D01*
X0179490Y0020382D01*
X0179590Y0020176D01*
X0179686Y0019967D01*
X0179776Y0019756D01*
X0179861Y0019543D01*
X0179941Y0019328D01*
X0180016Y0019111D01*
X0180085Y0018892D01*
X0180149Y0018672D01*
X0180208Y0018450D01*
X0180261Y0018227D01*
X0180308Y0018002D01*
X0180350Y0017776D01*
X0180387Y0017550D01*
X0180418Y0017323D01*
X0180443Y0017094D01*
X0180463Y0016866D01*
X0180477Y0016637D01*
X0180485Y0016407D01*
X0180488Y0016178D01*
X0180485Y0015949D01*
X0180477Y0015719D01*
X0180463Y0015490D01*
X0180443Y0015262D01*
X0180418Y0015033D01*
X0180387Y0014806D01*
X0180350Y0014580D01*
X0180308Y0014354D01*
X0180261Y0014129D01*
X0180208Y0013906D01*
X0180149Y0013684D01*
X0180085Y0013464D01*
X0180016Y0013245D01*
X0179941Y0013028D01*
X0179861Y0012813D01*
X0179776Y0012600D01*
X0179686Y0012389D01*
X0179590Y0012180D01*
X0179490Y0011974D01*
X0179384Y0011770D01*
X0179273Y0011569D01*
X0179158Y0011371D01*
X0179037Y0011176D01*
X0178912Y0010983D01*
X0178782Y0010794D01*
X0178648Y0010608D01*
X0178509Y0010426D01*
X0178366Y0010246D01*
X0178218Y0010071D01*
X0178066Y0009899D01*
X0177910Y0009731D01*
X0177749Y0009567D01*
X0177585Y0009406D01*
X0177417Y0009250D01*
X0177245Y0009098D01*
X0177070Y0008950D01*
X0176890Y0008807D01*
X0176708Y0008668D01*
X0176522Y0008534D01*
X0176333Y0008404D01*
X0176140Y0008279D01*
X0175945Y0008158D01*
X0175747Y0008043D01*
X0175546Y0007932D01*
X0175342Y0007826D01*
X0175136Y0007726D01*
X0174927Y0007630D01*
X0174716Y0007540D01*
X0174503Y0007455D01*
X0174288Y0007375D01*
X0174071Y0007300D01*
X0173852Y0007231D01*
X0173632Y0007167D01*
X0173410Y0007108D01*
X0173187Y0007055D01*
X0172962Y0007008D01*
X0172736Y0006966D01*
X0172510Y0006929D01*
X0172283Y0006898D01*
X0172054Y0006873D01*
X0171826Y0006853D01*
X0171597Y0006839D01*
X0171367Y0006831D01*
X0171138Y0006828D01*
X0170909Y0006831D01*
X0170679Y0006839D01*
X0170450Y0006853D01*
X0170222Y0006873D01*
X0169993Y0006898D01*
X0169766Y0006929D01*
X0169540Y0006966D01*
X0169314Y0007008D01*
X0169089Y0007055D01*
X0168866Y0007108D01*
X0168644Y0007167D01*
X0168424Y0007231D01*
X0168205Y0007300D01*
X0167988Y0007375D01*
X0167773Y0007455D01*
X0167560Y0007540D01*
X0167349Y0007630D01*
X0167140Y0007726D01*
X0166934Y0007826D01*
X0166730Y0007932D01*
X0166529Y0008043D01*
X0166331Y0008158D01*
X0166136Y0008279D01*
X0165943Y0008404D01*
X0165754Y0008534D01*
X0165568Y0008668D01*
X0165386Y0008807D01*
X0165206Y0008950D01*
X0165031Y0009098D01*
X0164859Y0009250D01*
X0164691Y0009406D01*
X0164527Y0009567D01*
X0164366Y0009731D01*
X0164210Y0009899D01*
X0164058Y0010071D01*
X0163910Y0010246D01*
X0163767Y0010426D01*
X0163628Y0010608D01*
X0163494Y0010794D01*
X0163364Y0010983D01*
X0163239Y0011176D01*
X0163118Y0011371D01*
X0163003Y0011569D01*
X0162892Y0011770D01*
X0162786Y0011974D01*
X0162686Y0012180D01*
X0162590Y0012389D01*
X0162500Y0012600D01*
X0162415Y0012813D01*
X0162335Y0013028D01*
X0162260Y0013245D01*
X0162191Y0013464D01*
X0162127Y0013684D01*
X0162068Y0013906D01*
X0162015Y0014129D01*
X0161968Y0014354D01*
X0161926Y0014580D01*
X0161889Y0014806D01*
X0161858Y0015033D01*
X0161833Y0015262D01*
X0161813Y0015490D01*
X0161799Y0015719D01*
X0161791Y0015949D01*
X0161788Y0016178D01*
X0001138Y0161178D02*
X0001085Y0161722D01*
X0001044Y0162268D01*
X0001016Y0162814D01*
X0001002Y0163361D01*
X0001001Y0163908D01*
X0001013Y0164455D01*
X0001039Y0165002D01*
X0001077Y0165547D01*
X0001129Y0166092D01*
X0001194Y0166635D01*
X0001272Y0167177D01*
X0001363Y0167716D01*
X0001467Y0168253D01*
X0001584Y0168788D01*
X0001714Y0169319D01*
X0001857Y0169847D01*
X0002012Y0170372D01*
X0002180Y0170892D01*
X0002361Y0171409D01*
X0002554Y0171920D01*
X0002759Y0172428D01*
X0002977Y0172929D01*
X0003206Y0173426D01*
X0003448Y0173917D01*
X0003701Y0174402D01*
X0003966Y0174880D01*
X0004242Y0175352D01*
X0004530Y0175818D01*
X0004829Y0176276D01*
X0005139Y0176727D01*
X0005460Y0177170D01*
X0005791Y0177605D01*
X0006133Y0178032D01*
X0006485Y0178451D01*
X0006847Y0178861D01*
X0007219Y0179263D01*
X0007600Y0179655D01*
X0007991Y0180038D01*
X0008391Y0180411D01*
X0008799Y0180775D01*
X0009217Y0181128D01*
X0009643Y0181472D01*
X0010077Y0181805D01*
X0010519Y0182127D01*
X0010968Y0182439D01*
X0011425Y0182739D01*
X0011890Y0183029D01*
X0012361Y0183307D01*
X0012838Y0183574D01*
X0013322Y0183829D01*
X0013812Y0184072D01*
X0014308Y0184304D01*
X0014809Y0184523D01*
X0015315Y0184731D01*
X0015826Y0184925D01*
X0016342Y0185108D01*
X0016862Y0185278D01*
X0017386Y0185435D01*
X0017913Y0185580D01*
X0018444Y0185712D01*
X0018978Y0185831D01*
X0019515Y0185937D01*
X0020054Y0186030D01*
X0020595Y0186111D01*
X0021138Y0186178D01*
X0035638Y0168166D02*
X0035640Y0168250D01*
X0035646Y0168333D01*
X0035656Y0168416D01*
X0035670Y0168499D01*
X0035687Y0168581D01*
X0035709Y0168662D01*
X0035734Y0168741D01*
X0035763Y0168820D01*
X0035796Y0168897D01*
X0035832Y0168972D01*
X0035872Y0169046D01*
X0035915Y0169118D01*
X0035962Y0169187D01*
X0036012Y0169254D01*
X0036065Y0169319D01*
X0036121Y0169381D01*
X0036179Y0169441D01*
X0036241Y0169498D01*
X0036305Y0169551D01*
X0036372Y0169602D01*
X0036441Y0169649D01*
X0036512Y0169694D01*
X0036585Y0169734D01*
X0036660Y0169771D01*
X0036737Y0169805D01*
X0036815Y0169835D01*
X0036894Y0169861D01*
X0036975Y0169884D01*
X0037057Y0169902D01*
X0037139Y0169917D01*
X0037222Y0169928D01*
X0037305Y0169935D01*
X0037389Y0169938D01*
X0037473Y0169937D01*
X0037556Y0169932D01*
X0037640Y0169923D01*
X0037722Y0169910D01*
X0037804Y0169894D01*
X0037885Y0169873D01*
X0037966Y0169849D01*
X0038044Y0169821D01*
X0038122Y0169789D01*
X0038198Y0169753D01*
X0038272Y0169714D01*
X0038344Y0169672D01*
X0038414Y0169626D01*
X0038482Y0169577D01*
X0038547Y0169525D01*
X0038610Y0169470D01*
X0038670Y0169412D01*
X0038728Y0169351D01*
X0038782Y0169287D01*
X0038834Y0169221D01*
X0038882Y0169153D01*
X0038927Y0169082D01*
X0038968Y0169009D01*
X0039007Y0168935D01*
X0039041Y0168859D01*
X0039072Y0168781D01*
X0039099Y0168702D01*
X0039123Y0168621D01*
X0039142Y0168540D01*
X0039158Y0168458D01*
X0039170Y0168375D01*
X0039178Y0168291D01*
X0039182Y0168208D01*
X0039182Y0168124D01*
X0039178Y0168041D01*
X0039170Y0167957D01*
X0039158Y0167874D01*
X0039142Y0167792D01*
X0039123Y0167711D01*
X0039099Y0167630D01*
X0039072Y0167551D01*
X0039041Y0167473D01*
X0039007Y0167397D01*
X0038968Y0167323D01*
X0038927Y0167250D01*
X0038882Y0167179D01*
X0038834Y0167111D01*
X0038782Y0167045D01*
X0038728Y0166981D01*
X0038670Y0166920D01*
X0038610Y0166862D01*
X0038547Y0166807D01*
X0038482Y0166755D01*
X0038414Y0166706D01*
X0038344Y0166660D01*
X0038272Y0166618D01*
X0038198Y0166579D01*
X0038122Y0166543D01*
X0038044Y0166511D01*
X0037966Y0166483D01*
X0037885Y0166459D01*
X0037804Y0166438D01*
X0037722Y0166422D01*
X0037640Y0166409D01*
X0037556Y0166400D01*
X0037473Y0166395D01*
X0037389Y0166394D01*
X0037305Y0166397D01*
X0037222Y0166404D01*
X0037139Y0166415D01*
X0037057Y0166430D01*
X0036975Y0166448D01*
X0036894Y0166471D01*
X0036815Y0166497D01*
X0036737Y0166527D01*
X0036660Y0166561D01*
X0036585Y0166598D01*
X0036512Y0166638D01*
X0036441Y0166683D01*
X0036372Y0166730D01*
X0036305Y0166781D01*
X0036241Y0166834D01*
X0036179Y0166891D01*
X0036121Y0166951D01*
X0036065Y0167013D01*
X0036012Y0167078D01*
X0035962Y0167145D01*
X0035915Y0167214D01*
X0035872Y0167286D01*
X0035832Y0167360D01*
X0035796Y0167435D01*
X0035763Y0167512D01*
X0035734Y0167591D01*
X0035709Y0167670D01*
X0035687Y0167751D01*
X0035670Y0167833D01*
X0035656Y0167916D01*
X0035646Y0167999D01*
X0035640Y0168082D01*
X0035638Y0168166D01*
X0062410Y0168166D02*
X0062412Y0168250D01*
X0062418Y0168333D01*
X0062428Y0168416D01*
X0062442Y0168499D01*
X0062459Y0168581D01*
X0062481Y0168662D01*
X0062506Y0168741D01*
X0062535Y0168820D01*
X0062568Y0168897D01*
X0062604Y0168972D01*
X0062644Y0169046D01*
X0062687Y0169118D01*
X0062734Y0169187D01*
X0062784Y0169254D01*
X0062837Y0169319D01*
X0062893Y0169381D01*
X0062951Y0169441D01*
X0063013Y0169498D01*
X0063077Y0169551D01*
X0063144Y0169602D01*
X0063213Y0169649D01*
X0063284Y0169694D01*
X0063357Y0169734D01*
X0063432Y0169771D01*
X0063509Y0169805D01*
X0063587Y0169835D01*
X0063666Y0169861D01*
X0063747Y0169884D01*
X0063829Y0169902D01*
X0063911Y0169917D01*
X0063994Y0169928D01*
X0064077Y0169935D01*
X0064161Y0169938D01*
X0064245Y0169937D01*
X0064328Y0169932D01*
X0064412Y0169923D01*
X0064494Y0169910D01*
X0064576Y0169894D01*
X0064657Y0169873D01*
X0064738Y0169849D01*
X0064816Y0169821D01*
X0064894Y0169789D01*
X0064970Y0169753D01*
X0065044Y0169714D01*
X0065116Y0169672D01*
X0065186Y0169626D01*
X0065254Y0169577D01*
X0065319Y0169525D01*
X0065382Y0169470D01*
X0065442Y0169412D01*
X0065500Y0169351D01*
X0065554Y0169287D01*
X0065606Y0169221D01*
X0065654Y0169153D01*
X0065699Y0169082D01*
X0065740Y0169009D01*
X0065779Y0168935D01*
X0065813Y0168859D01*
X0065844Y0168781D01*
X0065871Y0168702D01*
X0065895Y0168621D01*
X0065914Y0168540D01*
X0065930Y0168458D01*
X0065942Y0168375D01*
X0065950Y0168291D01*
X0065954Y0168208D01*
X0065954Y0168124D01*
X0065950Y0168041D01*
X0065942Y0167957D01*
X0065930Y0167874D01*
X0065914Y0167792D01*
X0065895Y0167711D01*
X0065871Y0167630D01*
X0065844Y0167551D01*
X0065813Y0167473D01*
X0065779Y0167397D01*
X0065740Y0167323D01*
X0065699Y0167250D01*
X0065654Y0167179D01*
X0065606Y0167111D01*
X0065554Y0167045D01*
X0065500Y0166981D01*
X0065442Y0166920D01*
X0065382Y0166862D01*
X0065319Y0166807D01*
X0065254Y0166755D01*
X0065186Y0166706D01*
X0065116Y0166660D01*
X0065044Y0166618D01*
X0064970Y0166579D01*
X0064894Y0166543D01*
X0064816Y0166511D01*
X0064738Y0166483D01*
X0064657Y0166459D01*
X0064576Y0166438D01*
X0064494Y0166422D01*
X0064412Y0166409D01*
X0064328Y0166400D01*
X0064245Y0166395D01*
X0064161Y0166394D01*
X0064077Y0166397D01*
X0063994Y0166404D01*
X0063911Y0166415D01*
X0063829Y0166430D01*
X0063747Y0166448D01*
X0063666Y0166471D01*
X0063587Y0166497D01*
X0063509Y0166527D01*
X0063432Y0166561D01*
X0063357Y0166598D01*
X0063284Y0166638D01*
X0063213Y0166683D01*
X0063144Y0166730D01*
X0063077Y0166781D01*
X0063013Y0166834D01*
X0062951Y0166891D01*
X0062893Y0166951D01*
X0062837Y0167013D01*
X0062784Y0167078D01*
X0062734Y0167145D01*
X0062687Y0167214D01*
X0062644Y0167286D01*
X0062604Y0167360D01*
X0062568Y0167435D01*
X0062535Y0167512D01*
X0062506Y0167591D01*
X0062481Y0167670D01*
X0062459Y0167751D01*
X0062442Y0167833D01*
X0062428Y0167916D01*
X0062418Y0167999D01*
X0062412Y0168082D01*
X0062410Y0168166D01*
D11*
X0068638Y0051414D03*
X0073638Y0051414D03*
X0078638Y0051414D03*
X0083638Y0051414D03*
X0083638Y0030941D03*
X0078638Y0030941D03*
X0073638Y0030941D03*
X0068638Y0030941D03*
D12*
X0110627Y0022178D03*
X0121650Y0022178D03*
X0121627Y0046178D03*
X0132650Y0046178D03*
D13*
X0044138Y0030689D03*
X0044138Y0019666D03*
D14*
X0076808Y0171178D03*
X0085469Y0171178D03*
D15*
X0060638Y0162654D03*
X0050796Y0173678D03*
X0040953Y0162654D03*
X0146453Y0050154D03*
X0156296Y0061178D03*
X0166138Y0050154D03*
D16*
X0144037Y0021978D03*
X0132840Y0021978D03*
X0111737Y0046178D03*
X0100540Y0046178D03*
X0130540Y0121178D03*
X0141737Y0121178D03*
X0121737Y0136178D03*
X0110540Y0136178D03*
X0091737Y0136178D03*
X0080540Y0136178D03*
D17*
X0049138Y0097178D03*
X0049138Y0084973D03*
X0137162Y0153973D03*
X0137162Y0166178D03*
D18*
X0161138Y0131178D03*
X0151138Y0121178D03*
X0171138Y0121178D03*
X0161138Y0091178D03*
X0151138Y0081178D03*
X0171138Y0081178D03*
X0035138Y0090178D03*
X0025138Y0100178D03*
X0015138Y0090178D03*
D19*
G36*
X0068896Y0102172D02*
X0073349Y0106625D01*
X0080586Y0099388D01*
X0076133Y0094935D01*
X0068896Y0102172D01*
G37*
G36*
X0076691Y0109967D02*
X0081144Y0114420D01*
X0088381Y0107183D01*
X0083928Y0102730D01*
X0076691Y0109967D01*
G37*
G36*
X0108340Y0114041D02*
X0112793Y0109588D01*
X0105556Y0102351D01*
X0101103Y0106804D01*
X0108340Y0114041D01*
G37*
G36*
X0116135Y0106247D02*
X0120588Y0101794D01*
X0113351Y0094557D01*
X0108898Y0099010D01*
X0116135Y0106247D01*
G37*
X0098236Y0074385D03*
X0087212Y0074385D03*
D20*
X0046162Y0056178D03*
X0024115Y0056178D03*
X0095115Y0161178D03*
X0117162Y0161178D03*
D21*
X0116138Y0162201D01*
X0133934Y0153973D02*
X0137162Y0153973D01*
X0137162Y0166178D02*
X0141138Y0166178D01*
X0110540Y0136178D02*
X0109424Y0136178D01*
X0111138Y0134463D01*
X0109424Y0136178D02*
X0091737Y0136178D01*
X0081138Y0135579D02*
X0080540Y0136178D01*
X0091138Y0161178D02*
X0095115Y0161178D01*
X0076808Y0170908D02*
X0076808Y0171178D01*
X0076808Y0171847D01*
X0076808Y0171178D02*
X0076138Y0171178D01*
X0114743Y0100402D02*
X0116915Y0100402D01*
X0100029Y0076178D02*
X0098236Y0074385D01*
X0114560Y0058377D02*
X0114738Y0058378D01*
X0111138Y0051178D02*
X0111138Y0051081D01*
X0111138Y0051178D01*
X0111138Y0046776D02*
X0111737Y0046178D01*
X0121138Y0045689D02*
X0121627Y0046178D01*
X0101138Y0045579D02*
X0100540Y0046178D01*
X0090223Y0051414D02*
X0089759Y0051678D01*
X0078657Y0051524D02*
X0078657Y0053333D01*
X0078638Y0051414D01*
X0051138Y0056178D02*
X0046138Y0056178D01*
X0046162Y0056178D01*
X0024115Y0056178D02*
X0024115Y0058201D01*
X0056238Y0089978D02*
X0056138Y0090178D01*
X0056238Y0089978D01*
X0050138Y0096178D02*
X0049138Y0097178D01*
X0120138Y0022178D02*
X0121650Y0022178D01*
X0144037Y0021978D02*
X0144837Y0021178D01*
X0146138Y0021178D01*
X0151988Y0027028D02*
X0151988Y0027039D01*
X0156296Y0046335D02*
X0156296Y0048352D01*
X0151138Y0056178D02*
X0151138Y0081178D01*
X0161138Y0091178D01*
X0176138Y0058503D02*
X0176253Y0058388D01*
X0176253Y0052944D02*
X0176138Y0052829D01*
X0166138Y0051178D02*
X0166138Y0050154D01*
X0151138Y0056178D02*
X0146453Y0051493D01*
X0146453Y0050154D01*
D22*
X0141138Y0048144D02*
X0141138Y0041178D01*
X0146138Y0036178D01*
X0151138Y0036178D01*
X0156138Y0041178D01*
X0156138Y0048195D01*
X0156296Y0048352D01*
X0156296Y0061178D01*
X0161138Y0056178D02*
X0161138Y0076178D01*
X0166138Y0081178D01*
X0166138Y0101178D01*
X0151138Y0116178D01*
X0151138Y0121178D01*
X0161138Y0131178D01*
X0151138Y0141178D02*
X0151138Y0156178D01*
X0141138Y0166178D01*
X0133934Y0153973D02*
X0126138Y0146178D01*
X0121737Y0136178D02*
X0121737Y0156603D01*
X0117162Y0161178D01*
X0116138Y0162201D02*
X0116138Y0171178D01*
X0111138Y0176178D01*
X0081138Y0176178D01*
X0076808Y0171847D01*
X0076808Y0170908D02*
X0072033Y0166134D01*
X0076138Y0156178D02*
X0066138Y0156178D01*
X0060638Y0161678D01*
X0060638Y0162654D01*
X0058590Y0173678D02*
X0050796Y0173678D01*
X0058590Y0173678D02*
X0060011Y0175098D01*
X0076138Y0156178D02*
X0086138Y0166178D01*
X0086138Y0170508D01*
X0085469Y0171178D01*
X0091138Y0161178D02*
X0082538Y0153978D01*
X0080540Y0136178D02*
X0071138Y0126776D01*
X0071138Y0126178D01*
X0056138Y0111178D01*
X0046138Y0111178D01*
X0035138Y0100178D01*
X0025138Y0100178D01*
X0015138Y0090178D01*
X0010938Y0095978D02*
X0026138Y0111178D01*
X0036138Y0111178D01*
X0041138Y0116178D01*
X0051138Y0116178D01*
X0061138Y0126178D01*
X0061138Y0136178D01*
X0056138Y0141178D01*
X0041138Y0141178D01*
X0071138Y0116178D02*
X0061138Y0106178D01*
X0061138Y0101178D01*
X0056138Y0096178D01*
X0050138Y0096178D01*
X0056138Y0090178D02*
X0035138Y0090178D01*
X0049138Y0084973D02*
X0049138Y0078178D01*
X0061138Y0066178D01*
X0064910Y0066178D01*
X0073638Y0057449D01*
X0073638Y0051414D01*
X0078657Y0051524D02*
X0078694Y0056158D01*
X0078694Y0058733D01*
X0081138Y0061178D01*
X0111759Y0061178D01*
X0115313Y0057624D01*
X0114560Y0058377D01*
X0115313Y0057624D02*
X0116584Y0056353D01*
X0121408Y0061178D01*
X0131138Y0061178D01*
X0136338Y0055978D01*
X0136338Y0052944D01*
X0141138Y0048144D01*
X0132650Y0046178D02*
X0132650Y0039666D01*
X0136138Y0036178D01*
X0131138Y0031178D02*
X0132840Y0029476D01*
X0132840Y0021978D01*
X0126138Y0016178D02*
X0120138Y0022178D01*
X0110627Y0022178D02*
X0100027Y0011378D01*
X0096538Y0011378D01*
X0095938Y0011378D01*
X0070938Y0011378D01*
X0068638Y0013678D01*
X0068638Y0030941D01*
X0073638Y0030941D02*
X0073638Y0018678D01*
X0076138Y0016478D01*
X0086538Y0016478D01*
X0092338Y0016678D01*
X0096738Y0020878D01*
X0099438Y0023878D01*
X0106138Y0031178D01*
X0116138Y0031178D01*
X0121138Y0036178D01*
X0121138Y0045689D01*
X0121627Y0046178D02*
X0121627Y0051310D01*
X0116584Y0056353D01*
X0111138Y0051178D02*
X0107738Y0054278D01*
X0097738Y0054278D01*
X0093938Y0050978D01*
X0093838Y0039778D01*
X0090689Y0035906D01*
X0086218Y0041178D01*
X0071138Y0041178D01*
X0068638Y0043678D01*
X0068638Y0051414D01*
X0066011Y0051414D01*
X0056138Y0041541D01*
X0056138Y0051178D01*
X0051138Y0056178D01*
X0056138Y0041541D02*
X0056138Y0026178D01*
X0049627Y0019666D01*
X0044138Y0019666D01*
X0027627Y0036178D01*
X0016138Y0036178D01*
X0010938Y0041378D01*
X0010938Y0095978D01*
X0016138Y0066178D02*
X0024115Y0058201D01*
X0044138Y0034178D02*
X0044138Y0030689D01*
X0044138Y0034178D02*
X0051138Y0041178D01*
X0078638Y0030941D02*
X0078638Y0023678D01*
X0081138Y0021178D01*
X0086138Y0021178D01*
X0101138Y0036178D01*
X0101138Y0042218D01*
X0107178Y0036178D01*
X0111138Y0036178D01*
X0111138Y0046776D02*
X0111138Y0051081D01*
X0101138Y0045579D02*
X0101138Y0042218D01*
X0090689Y0035906D02*
X0085902Y0030941D01*
X0083638Y0030941D01*
X0078638Y0023678D02*
X0078738Y0023378D01*
X0083638Y0051414D02*
X0090223Y0051414D01*
X0078694Y0056158D02*
X0078711Y0058278D01*
X0071138Y0066178D02*
X0121138Y0066178D01*
X0131138Y0076178D01*
X0131138Y0106178D01*
X0111138Y0126178D01*
X0111138Y0134463D01*
X0121737Y0136178D02*
X0130540Y0127375D01*
X0130540Y0121178D01*
X0141737Y0121178D02*
X0141737Y0131776D01*
X0151138Y0141178D01*
X0171138Y0121178D02*
X0176138Y0116178D01*
X0176138Y0086178D01*
X0171138Y0081178D01*
X0176138Y0076178D01*
X0176138Y0058503D01*
X0176253Y0058388D02*
X0176253Y0052944D01*
X0176138Y0052829D02*
X0176138Y0046178D01*
X0165288Y0035328D01*
X0160277Y0035328D01*
X0151988Y0027039D01*
X0151988Y0027028D02*
X0146138Y0021178D01*
X0166138Y0051178D02*
X0161138Y0056178D01*
X0121138Y0091178D02*
X0121138Y0096178D01*
X0116915Y0100402D01*
X0121138Y0091178D02*
X0106138Y0076178D01*
X0100029Y0076178D01*
X0087212Y0074385D02*
X0077931Y0074385D01*
X0071138Y0081178D01*
X0071138Y0097178D01*
X0074741Y0100780D01*
X0082536Y0108575D02*
X0082536Y0114780D01*
X0081138Y0116178D01*
X0071138Y0116178D01*
X0081138Y0126178D02*
X0081138Y0135579D01*
X0081138Y0126178D02*
X0099120Y0108196D01*
X0106948Y0108196D01*
X0071138Y0066178D02*
X0064938Y0071878D01*
X0064938Y0081278D01*
X0056238Y0089978D01*
D23*
X0089759Y0051678D03*
X0111138Y0036178D03*
X0131138Y0031178D03*
X0136138Y0036178D03*
X0126138Y0016178D03*
X0051138Y0041178D03*
X0016138Y0066178D03*
X0041138Y0141178D03*
X0072033Y0166134D03*
X0060011Y0175098D03*
X0082538Y0153978D03*
X0126138Y0146178D03*
M02*
